<?xml version="1.0" standalone="no"?>
<!DOCTYPE svg PUBLIC "-//W3C//DTD SVG 20010904//EN"
 "http://www.w3.org/TR/2001/REC-SVG-20010904/DTD/svg10.dtd">
<svg version="1.0" xmlns="http://www.w3.org/2000/svg"
 width="800.000000pt" height="800.000000pt" viewBox="0 0 800.000000 800.000000"
 preserveAspectRatio="xMidYMid meet">
<metadata>
Created by potrace 1.14, written by Peter Selinger 2001-2017
</metadata>
<g transform="translate(0.000000,800.000000) scale(0.100000,-0.100000)"
fill="#000000" stroke="none">
<path d="M3045 7826 c-195 -47 -276 -184 -232 -392 17 -81 115 -292 167 -359
4 -5 19 -30 32 -55 14 -25 74 -128 132 -228 59 -101 106 -185 104 -186 -2 -2
-52 -28 -111 -59 -96 -50 -263 -151 -277 -167 -3 -3 -25 -20 -50 -38 -25 -18
-75 -62 -112 -99 -55 -54 -73 -80 -94 -137 -33 -86 -192 -469 -227 -546 -14
-30 -48 -107 -77 -170 -64 -141 -231 -480 -303 -615 -29 -55 -79 -149 -111
-210 -33 -60 -62 -114 -66 -120 -54 -73 -530 -999 -530 -1030 0 -3 -11 -28
-24 -57 -103 -229 -137 -339 -153 -493 -15 -141 -4 -345 28 -481 6 -27 13 -59
15 -72 9 -45 75 -255 89 -283 8 -15 15 -34 15 -41 0 -24 180 -374 247 -480
241 -381 513 -682 858 -946 142 -109 436 -256 553 -277 15 -2 50 -9 77 -14 50
-9 140 -8 205 4 79 14 208 34 259 40 30 4 61 8 70 10 9 1 50 6 91 10 41 4 82
9 92 10 37 7 271 18 388 19 123 0 277 -8 375 -20 61 -7 325 -59 379 -75 36
-10 169 -7 241 6 270 50 519 165 726 337 26 21 49 38 52 38 4 0 57 51 119 112
62 62 118 111 123 110 6 -2 7 -1 3 3 -4 4 26 47 65 95 101 123 100 121 192
260 269 403 485 918 586 1395 7 33 13 62 14 65 1 3 5 28 10 55 4 28 9 59 12
70 18 89 22 188 11 240 -4 17 -10 45 -13 64 -4 19 -19 75 -35 125 -128 413
-384 921 -853 1691 -7 11 -21 33 -32 50 -11 16 -24 37 -30 47 -153 268 -736
1106 -994 1428 -72 90 -71 89 -121 150 -25 30 -52 63 -60 74 -31 38 -263 131
-390 155 -30 6 -77 15 -104 20 -130 24 -387 4 -547 -43 -29 -9 -54 -14 -57
-12 -10 11 -173 401 -201 483 -27 80 -32 109 -35 210 -3 133 -19 187 -70 241
-32 35 -87 68 -141 84 -47 15 -225 17 -280 4z"/>
</g>
</svg>
